<?xml version="1.0" encoding="UTF-8"?>
<svg xmlns="http://www.w3.org/2000/svg" xmlns:xlink="http://www.w3.org/1999/xlink" viewBox="0 0 64 64" width="64px" height="64px">
<g id="surface143997593">
<path style=" stroke:none;fill-rule:nonzero;fill:rgb(100%,98.039216%,98.039216%);fill-opacity:1;" d="M 32 8 C 27.710938 8 24.234375 11.4375 24.0625 15.6875 C 16.851562 18.75 12 25.882812 12 34 C 12 34.34375 11.984375 34.71875 12 35.125 C 9.632812 36.515625 8 39.070312 8 42 C 8 46.398438 11.601562 50 16 50 C 17.148438 50 18.257812 49.757812 19.25 49.3125 C 22.71875 52.226562 27.234375 54 32 54 C 36.765625 54 41.28125 52.226562 44.75 49.3125 C 45.742188 49.757812 46.851562 50 48 50 C 52.398438 50 56 46.398438 56 42 C 56 39.039062 54.351562 36.445312 51.9375 35.0625 C 51.96875 34.742188 52 34.414062 52 34 C 52 25.882812 47.148438 18.75 39.9375 15.6875 C 39.765625 11.4375 36.289062 8 32 8 Z M 32 12 C 34.234375 12 36 13.765625 36 16 C 36 18.234375 34.234375 20 32 20 C 29.765625 20 28 18.234375 28 16 C 28 13.765625 29.765625 12 32 12 Z M 24.9375 19.6875 C 26.28125 22.234375 28.9375 24 32 24 C 35.0625 24 37.71875 22.234375 39.0625 19.6875 C 44.421875 22.289062 48 27.757812 48 34 C 43.601562 34 40 37.601562 40 42 C 40 43.789062 40.617188 45.414062 41.625 46.75 C 38.953125 48.773438 35.515625 50 32 50 C 28.484375 50 25.046875 48.773438 22.375 46.75 C 23.382812 45.414062 24 43.789062 24 42 C 24 37.601562 20.398438 34 16 34 C 16 27.757812 19.578125 22.289062 24.9375 19.6875 Z M 16 38 C 18.234375 38 20 39.765625 20 42 C 20 44.234375 18.234375 46 16 46 C 13.765625 46 12 44.234375 12 42 C 12 39.765625 13.765625 38 16 38 Z M 48 38 C 50.234375 38 52 39.765625 52 42 C 52 44.234375 50.234375 46 48 46 C 45.765625 46 44 44.234375 44 42 C 44 39.765625 45.765625 38 48 38 Z M 48 38 "/>
</g>
</svg>
