<?xml version="1.0" encoding="UTF-8"?>
<svg xmlns="http://www.w3.org/2000/svg" xmlns:xlink="http://www.w3.org/1999/xlink" viewBox="0 0 35 35" width="35px" height="35px">
<g id="surface70535719">
<path style=" stroke:none;fill-rule:nonzero;fill:rgb(100%,100%,100%);fill-opacity:1;" d="M 17.5 3.5 C 9.769531 3.5 3.5 9.769531 3.5 17.5 C 3.5 25.230469 9.769531 31.5 17.5 31.5 C 25.230469 31.5 31.5 25.230469 31.5 17.5 C 31.5 9.769531 25.230469 3.5 17.5 3.5 Z M 12.246094 9.804688 C 13.226562 9.804688 13.882812 10.457031 13.882812 11.332031 C 13.882812 12.203125 13.226562 12.859375 12.136719 12.859375 C 11.15625 12.859375 10.5 12.203125 10.5 11.332031 C 10.5 10.457031 11.15625 9.804688 12.246094 9.804688 Z M 14 23.332031 L 10.5 23.332031 L 10.5 14 L 14 14 Z M 25.667969 23.332031 L 22.371094 23.332031 L 22.371094 18.234375 C 22.371094 16.820312 21.492188 16.496094 21.164062 16.496094 C 20.835938 16.496094 19.738281 16.714844 19.738281 18.234375 C 19.738281 18.449219 19.738281 23.332031 19.738281 23.332031 L 16.332031 23.332031 L 16.332031 14 L 19.738281 14 L 19.738281 15.300781 C 20.175781 14.542969 21.054688 14 22.703125 14 C 24.347656 14 25.667969 15.300781 25.667969 18.234375 Z M 25.667969 23.332031 "/>
</g>
</svg>
