<?xml version="1.0" encoding="UTF-8"?>
<svg xmlns="http://www.w3.org/2000/svg" xmlns:xlink="http://www.w3.org/1999/xlink" viewBox="0 0 35 35" width="35px" height="35px">
<g id="surface70480783">
<path style=" stroke:none;fill-rule:nonzero;fill:rgb(100%,100%,100%);fill-opacity:1;" d="M 3.851562 4.898438 C 2.113281 4.898438 0.699219 6.3125 0.699219 8.050781 L 0.699219 8.347656 L 17.5 20.300781 L 34.300781 8.347656 L 34.300781 8.050781 C 34.300781 6.3125 32.886719 4.898438 31.148438 4.898438 Z M 4.445312 6.300781 L 30.550781 6.300781 L 17.5 15.398438 Z M 0.699219 9.820312 L 0.699219 26.949219 C 0.699219 28.6875 2.113281 30.101562 3.851562 30.101562 L 31.148438 30.101562 C 32.886719 30.101562 34.300781 28.6875 34.300781 26.949219 L 34.300781 9.820312 L 30.101562 12.808594 L 30.101562 28.699219 L 4.898438 28.699219 L 4.898438 12.808594 Z M 0.699219 9.820312 "/>
</g>
</svg>
