<?xml version="1.0" encoding="UTF-8"?>
<svg xmlns="http://www.w3.org/2000/svg" xmlns:xlink="http://www.w3.org/1999/xlink" viewBox="0 0 35 35" width="35px" height="35px">
<g id="surface70774937">
<path style=" stroke:none;fill-rule:nonzero;fill:rgb(100%,100%,100%);fill-opacity:1;" d="M 20.417969 16.070312 C 19.660156 16.070312 19.046875 16.84375 19.046875 17.792969 C 19.046875 18.738281 19.660156 19.511719 20.417969 19.511719 C 21.175781 19.511719 21.789062 18.738281 21.789062 17.792969 C 21.789062 16.84375 21.175781 16.070312 20.417969 16.070312 Z M 14.582031 16.070312 C 13.824219 16.070312 13.210938 16.84375 13.210938 17.792969 C 13.210938 18.738281 13.824219 19.511719 14.582031 19.511719 C 15.339844 19.511719 15.953125 18.738281 15.953125 17.792969 C 15.953125 16.84375 15.339844 16.070312 14.582031 16.070312 Z M 20.417969 16.070312 C 19.660156 16.070312 19.046875 16.84375 19.046875 17.792969 C 19.046875 18.738281 19.660156 19.511719 20.417969 19.511719 C 21.175781 19.511719 21.789062 18.738281 21.789062 17.792969 C 21.789062 16.84375 21.175781 16.070312 20.417969 16.070312 Z M 14.582031 16.070312 C 13.824219 16.070312 13.210938 16.84375 13.210938 17.792969 C 13.210938 18.738281 13.824219 19.511719 14.582031 19.511719 C 15.339844 19.511719 15.953125 18.738281 15.953125 17.792969 C 15.953125 16.84375 15.339844 16.070312 14.582031 16.070312 Z M 26.25 4.375 L 8.75 4.375 C 6.328125 4.375 4.375 6.328125 4.375 8.75 L 4.375 26.25 C 4.375 28.671875 6.328125 30.625 8.75 30.625 L 24.792969 30.625 L 24.238281 28.570312 L 28.628906 32.988281 C 29.371094 33.730469 30.625 33.207031 30.625 32.171875 L 30.625 8.75 C 30.625 6.328125 28.671875 4.375 26.25 4.375 Z M 25.621094 21.496094 C 23.625 23.320312 21.015625 23.332031 21.015625 23.332031 L 20.386719 22.488281 C 21.027344 22.269531 21.582031 21.976562 22.152344 21.539062 L 22.019531 21.191406 C 20.972656 21.671875 19.613281 21.960938 17.5 21.960938 C 15.386719 21.960938 14.027344 21.671875 12.980469 21.191406 L 12.847656 21.539062 C 13.417969 21.976562 13.972656 22.269531 14.613281 22.488281 L 13.984375 23.332031 C 13.984375 23.332031 11.375 23.320312 9.378906 21.496094 C 9.054688 21.203125 8.925781 20.753906 8.953125 20.328125 C 9.320312 16.113281 10.617188 13.5625 11.082031 12.773438 C 11.183594 12.585938 11.332031 12.441406 11.507812 12.308594 C 12.058594 11.945312 13.445312 11.128906 15.152344 10.953125 L 15.589844 11.839844 C 16.214844 11.726562 16.902344 11.636719 17.5 11.636719 C 18.082031 11.636719 18.753906 11.726562 19.410156 11.839844 L 19.847656 10.953125 C 21.480469 11.082031 22.925781 11.929688 23.492188 12.308594 C 23.667969 12.441406 23.816406 12.585938 23.917969 12.773438 C 24.382812 13.578125 25.679688 16.113281 26.046875 20.328125 C 26.074219 20.753906 25.945312 21.203125 25.621094 21.496094 Z M 20.417969 16.070312 C 19.660156 16.070312 19.046875 16.84375 19.046875 17.792969 C 19.046875 18.738281 19.660156 19.511719 20.417969 19.511719 C 21.175781 19.511719 21.789062 18.738281 21.789062 17.792969 C 21.789062 16.84375 21.175781 16.070312 20.417969 16.070312 Z M 14.582031 16.070312 C 13.824219 16.070312 13.210938 16.84375 13.210938 17.792969 C 13.210938 18.738281 13.824219 19.511719 14.582031 19.511719 C 15.339844 19.511719 15.953125 18.738281 15.953125 17.792969 C 15.953125 16.84375 15.339844 16.070312 14.582031 16.070312 Z M 14.582031 16.070312 "/>
</g>
</svg>
